<?xml version="1.0" encoding="utf-8"?>
<!-- Generator: Adobe Illustrator 19.0.0, SVG Export Plug-In . SVG Version: 6.00 Build 0)  -->
<svg version="1.1" id="Layer_1" xmlns="http://www.w3.org/2000/svg" xmlns:xlink="http://www.w3.org/1999/xlink" x="0px" y="0px"
	 width="274.5px" height="221.5px" viewBox="0 0 274.5 221.5" style="enable-background:new 0 0 274.5 221.5;" xml:space="preserve"
	>
<style type="text/css">
	.st0{fill:#FFFFFF;}
</style>
<g>
	<path class="st0" d="M13.2,179.8c4.8,0,10.1-3.7,10.1-10.3V137h3.1v15.3c0,13.5,0.1,15.1,0.1,16.8c0,8.6-6.7,13.7-13.2,13.7
		c-7.5,0-12.1-5.2-13.3-10.8l3-0.5C3.9,175.8,7.4,179.8,13.2,179.8z"/>
	<path class="st0" d="M57.8,135.9c12.9,0,21.9,10.3,21.9,21.5c0,12.9-10.3,21.9-21.5,21.9c-12.9,0-21.9-10.3-21.9-21.5
		C36.3,144.9,46.5,135.9,57.8,135.9z M57.8,139c-9.5,0-18.5,7.5-18.5,18.8c0,9.5,7.5,18.5,18.8,18.5c9.5,0,18.5-7.5,18.5-18.6
		C76.6,147.4,68.7,139,57.8,139z"/>
	<path class="st0" d="M119.5,171.3V137h3.1v42.6l-29.9-35.6v34.2h-3.1v-42.6L119.5,171.3z"/>
	<path class="st0" d="M151.9,179.2c-9.7,0-15.8-7.7-15.8-15.4V137h3.1v26.6c0,6.2,4.8,12.4,12.7,12.4c6.1,0,12.4-4.9,12.4-12.7V137
		h3.1v26.4C167.4,173.1,159.6,179.2,151.9,179.2z"/>
	<path class="st0" d="M199.1,176.3c4.8,0,9.5-1.9,13-5.3l2.2,2.2c-4,4-9.5,6.2-15.1,6.2c-12.9,0-21.9-10.3-21.9-21.5
		c0-12.9,10.3-21.9,21.5-21.9c6.3,0,11.8,2.5,15.6,6.4l-2.2,2.2c-3.3-3.3-7.9-5.5-13.5-5.5c-9.9,0-18.5,7.9-18.5,18.8
		C180.3,167.6,188.3,176.3,199.1,176.3z M206.9,126.4l-8,7.3l-8-7.3l1.9-2.1l6.2,5.5l6.1-5.5L206.9,126.4z"/>
	<path class="st0" d="M226.7,178.3V137h3.1v41.3H226.7z"/>
	<path class="st0" d="M259.1,179.2c-9.8,0-15.8-7.7-15.8-15.4V137h3.1v26.6c0,6.2,4.8,12.4,12.7,12.4c6.1,0,12.4-4.9,12.4-12.7V137
		h3.1v26.4C274.5,173.1,266.7,179.2,259.1,179.2z M260.4,178.8c-2,1.4-4,2.6-4,4.8c0,1.9,1.6,3.3,3.4,3.3c1,0,1.8-0.3,2.9-0.7
		l0.9,2.6c-1.1,0.4-3.1,0.9-5,0.9c-1.8,0-5-1.5-5-4.5c0-2.8,1.3-4.6,4.1-6.3H260.4z"/>
</g>
<g>
	<path class="st0" d="M83.6,198.5h2.8l14.4,19.8v-19.8h2.4v23.1h-2.8L86,201.7v19.8h-2.4V198.5z"/>
	<path class="st0" d="M119.4,198.5h2.6l10.4,23.1h-2.6l-4.1-9.2h-9.9l-4.1,9.2h-2.6L119.4,198.5z M120.7,201.3l-4,8.8h7.9
		L120.7,201.3z"/>
	<path class="st0" d="M158.8,203.9l-7.7,17.7h-2.8l-7.8-17.7v17.7h-2.4v-23.1h2.7l8.8,20.5l8.8-20.5h2.7v23.1h-2.4V203.9z"/>
	<path class="st0" d="M177.4,198.5h2.6l10.4,23.1h-2.6l-4.1-9.2h-9.9l-4.1,9.2H167L177.4,198.5z M178.7,201.3l-4,8.8h7.9
		L178.7,201.3z"/>
	<path class="st0" d="M196.1,198.5h2.4v23.1h-2.4V198.5z"/>
</g>
<rect x="43.4" y="211.3" class="st0" width="29.5" height="1.8"/>
<rect x="208.9" y="211.3" class="st0" width="29.5" height="1.8"/>
<g>
	<g>
		<path class="st0" d="M137.7,109.5c-19.2,0-34.8-15.6-34.8-34.8c0-18.7,0-18.7,33.2-73.8c0.3-0.6,0.9-0.9,1.6-0.9s1.2,0.3,1.6,0.9
			C172.5,56,172.5,56,172.5,74.7C172.5,93.9,156.9,109.5,137.7,109.5z M137.7,5.4c-31.1,51.6-31.1,51.9-31.1,69.3
			c0,17.1,14,31.1,31.1,31.1c17.1,0,31.1-14,31.1-31.1C168.8,57.3,168.8,57,137.7,5.4z"/>
		<path class="st0" d="M139.6,108h-3.7V39.6c-5.5,6.5-16.3,20.9-16.3,35.1c0,7.6,2,13.1,5.9,16c2.8,2.1,5.5,2.1,5.5,2.1v3.7
			c-5.2,0-15.2-4.6-15.2-21.8c0-8.6,3.5-18.2,10.3-28.5c5-7.6,10-12.5,10.2-12.8c0.5-0.5,1.3-0.7,2-0.4c0.7,0.3,1.1,1,1.1,1.7V108z"
			/>
		<path class="st0" d="M139.6,108h-3.7V34.8c0-0.7,0.4-1.4,1.1-1.7c0.7-0.3,1.5-0.1,2,0.4c0.2,0.2,5.2,5.2,10.2,12.8
			c6.8,10.2,10.3,19.8,10.3,28.5c0,17.2-9.9,21.8-15.2,21.8v-3.7c0.5,0,11.5-0.4,11.5-18.1c0-14.2-10.8-28.7-16.3-35.1V108z"/>
		
			<rect x="113.6" y="76.2" transform="matrix(0.7071 0.7071 -0.7071 0.7071 92.5997 -67.4677)" class="st0" width="28.2" height="3.7"/>
		
			<rect x="145.9" y="63.9" transform="matrix(0.7071 0.7071 -0.7071 0.7071 98.4437 -81.5839)" class="st0" width="3.7" height="28.2"/>
		
			<rect x="121.7" y="59.6" transform="matrix(0.7071 0.7071 -0.7071 0.7071 81.8064 -74.6924)" class="st0" width="18.8" height="3.7"/>
		
			<rect x="142.5" y="52" transform="matrix(0.7071 0.7071 -0.7071 0.7071 85.7049 -84.1042)" class="st0" width="3.7" height="18.8"/>
	</g>
</g>
</svg>
